<?xml version="1.0" encoding="utf-8"?>
<!-- Generator: Adobe Illustrator 25.0.0, SVG Export Plug-In . SVG Version: 6.00 Build 0)  -->
<svg version="1.1" id="Layer_1" xmlns="http://www.w3.org/2000/svg" xmlns:xlink="http://www.w3.org/1999/xlink" x="0px" y="0px"
	 viewBox="0 0 644.68 135.11" style="enable-background:new 0 0 644.68 135.11;" xml:space="preserve">
<style type="text/css">
	.st0{opacity:0.97;fill:#FFFFFF;}
</style>
<g>
	<g>
		<path class="st0" d="M7.84,80.72c0-0.78,0-1.17,0-1.95c9.3-3.64,13.97-5.49,23.35-9.17c0.01,0.92,0.02,1.37,0.03,2.29
			C21.83,75.44,17.15,77.22,7.84,80.72z M7.84,127.78c0-0.78,0-1.17,0-1.95c10.98-0.23,16.47-0.47,27.45-1.11
			c2.42-0.14,4.47-1.05,6.13-2.8c1.66-1.74,2.93-4.02,3.81-6.82c0.88-2.8,1.31-5.81,1.3-8.97c1.03-0.17,1.55-0.25,2.58-0.42
			c0.16,8.24,0.23,12.37,0.39,20.61C35.61,127.06,21.74,127.68,7.84,127.78z M14.01,126.69c-0.07-16.75-0.14-33.5-0.21-50.26
			c3.97-1.56,5.96-2.34,9.94-3.91c0.18,17.95,0.35,35.9,0.53,53.85C20.16,126.53,18.11,126.59,14.01,126.69z"/>
		<path class="st0" d="M52.48,63.87c-0.02-1.03-0.03-1.55-0.05-2.58c8.93-3.46,13.41-5.18,22.4-8.55c0.03,1.14,0.04,1.71,0.07,2.85
			C65.9,58.85,61.41,60.52,52.48,63.87z M53.71,126.07c-0.02-1.03-0.03-1.55-0.05-2.58c9.12-0.69,13.67-1.08,22.79-1.9
			c0.03,1.14,0.04,1.71,0.07,2.85C67.39,125.16,62.83,125.5,53.71,126.07z M59.85,124.34c-0.46-21.8-0.92-43.59-1.38-65.39
			c4.03-1.55,6.04-2.32,10.08-3.85c0.52,22.81,1.04,45.63,1.56,68.44C66.01,123.87,63.96,124.03,59.85,124.34z"/>
		<path class="st0" d="M104.62,123.02c-5.04-22.84-10.21-45.65-15.63-68.4c-0.1,0.03-0.15,0.05-0.26,0.09
			c0.54,21.86,1.08,43.72,1.62,65.58c2.86-0.27,4.29-0.41,7.15-0.69c0.03,1.23,0.05,1.85,0.08,3.09
			c-6.86,0.59-10.29,0.89-17.16,1.44c-0.03-1.16-0.04-1.74-0.07-2.9c2.86-0.26,4.29-0.4,7.15-0.67
			c-0.56-22.96-1.13-45.91-1.69-68.87c-2.83,1-4.24,1.5-7.06,2.52c-0.03-1.16-0.04-1.74-0.07-2.9c8.1-3.01,12.16-4.48,20.31-7.34
			c3.53,15.18,6.98,30.38,10.33,45.59c0.1-0.02,0.16-0.03,0.26-0.05c2.69-17.27,5.31-34.54,7.88-51.82
			c7.51-2.46,11.27-3.65,18.8-5.91c0.03,1.39,0.05,2.08,0.09,3.47c-2.7,0.79-4.05,1.19-6.75,2c0.65,26.35,1.31,52.69,1.96,79.04
			c2.7-0.25,4.06-0.38,6.76-0.63c0.03,1.39,0.05,2.09,0.09,3.48c-9.59,0.79-14.39,1.22-23.98,2.06c-0.03-1.3-0.05-1.95-0.08-3.26
			c2.78-0.27,4.17-0.41,6.95-0.68c-0.61-24.14-1.22-48.29-1.82-72.43c-0.1,0.03-0.16,0.05-0.26,0.08
			c-3.83,25.98-7.79,51.93-11.91,77.87C106.21,122.89,105.68,122.93,104.62,123.02z"/>
		<path class="st0" d="M140.23,34.14c-0.03-1.4-0.05-2.1-0.09-3.51c9.13-2.67,13.7-3.93,22.87-6.22c0.03,1.48,0.05,2.21,0.08,3.69
			C153.94,30.32,149.36,31.54,140.23,34.14z M142.29,118.83c-0.03-1.4-0.05-2.11-0.09-3.51c9.13-0.81,13.69-1.2,22.82-1.87
			c0.03,1.48,0.05,2.21,0.08,3.69C155.98,117.75,151.41,118.1,142.29,118.83z M148.42,116.57c-0.7-29.24-1.39-58.47-2.09-87.71
			c4.11-1.16,6.17-1.72,10.3-2.81c0.69,29.9,1.38,59.81,2.07,89.71C154.58,116.07,152.53,116.23,148.42,116.57z"/>
		<path class="st0" d="M177.97,116.37c-0.03-1.51-0.05-2.27-0.08-3.78c3.25-0.2,4.88-0.29,8.13-0.46c-0.6-29.57-1.2-59.13-1.8-88.7
			c-1.31,0.26-1.96,0.39-3.27,0.66c-2.4,0.49-4.43,2.21-6.1,5.08c-1.67,2.88-2.93,6.46-3.77,10.72c-0.85,4.27-1.24,8.76-1.18,13.5
			c-1.04,0.19-1.57,0.28-2.61,0.48c-0.22-10.12-0.45-20.23-0.67-30.35c15.11-3.47,30.16-6.38,45.49-8.68
			c0.18,10.87,0.37,21.74,0.55,32.61c-1.05,0.1-1.57,0.15-2.62,0.25c-0.13-5.04-0.7-9.68-1.72-13.89c-1.02-4.21-2.4-7.52-4.15-9.9
			c-1.75-2.39-3.86-3.37-6.31-2.97c-1.31,0.22-1.97,0.33-3.28,0.56c0.57,30.05,1.15,60.11,1.72,90.16c3.07-0.12,4.6-0.17,7.67-0.26
			c0.03,1.58,0.04,2.36,0.07,3.94C193.62,115.58,188.4,115.81,177.97,116.37z"/>
		<path class="st0" d="M254.97,38.19c-0.09-4.26-0.58-8.14-1.48-11.64c-0.89-3.5-2.15-6.28-3.75-8.32
			c-1.61-2.04-3.53-2.96-5.77-2.77c-9.29,0.8-18.59,1.76-27.85,2.88c-0.03-1.6-0.04-2.41-0.07-4.01c13.72-1.7,27.48-3.07,41.26-4.11
			c0.11,11.13,0.17,16.69,0.29,27.82C256.55,38.1,256.02,38.13,254.97,38.19z M217.7,115.18c-0.03-1.61-0.04-2.41-0.07-4.01
			c11.01-0.08,16.51-0.11,27.52-0.17c2.43-0.01,4.47-1.4,6.13-4.18c1.66-2.78,2.93-6.45,3.82-11c0.89-4.55,1.32-9.47,1.31-14.75
			c1.05-0.03,1.57-0.04,2.61-0.07c0.12,11.37,0.23,22.74,0.35,34.11C245.48,115.13,231.59,115.15,217.7,115.18z M223.84,113.15
			c-0.51-33.19-1.03-66.38-1.54-99.57c4.16-0.48,6.24-0.71,10.41-1.15c0.47,33.56,0.94,67.12,1.41,100.68
			C230.01,113.12,227.95,113.13,223.84,113.15z M245.42,85.38c-0.1-4.41-0.56-8.02-1.38-10.83c-0.82-2.81-2.11-4.87-3.87-6.16
			c-1.76-1.29-4.08-1.87-6.96-1.72c-0.02-1.63-0.03-2.45-0.06-4.08c2.88-0.16,5.18-0.91,6.92-2.29c1.73-1.37,2.97-3.41,3.73-6.11
			c0.75-2.7,1.13-6.08,1.12-10.12c1.05-0.07,1.58-0.1,2.63-0.16c0.16,13.8,0.33,27.61,0.49,41.41
			C246.98,85.34,246.46,85.35,245.42,85.38z"/>
		<path class="st0" d="M264.57,115.1c-0.02-1.68-0.02-2.51-0.04-4.19c9.39-0.04,14.09-0.05,23.49-0.07
			c2.34-0.01,4.32-0.72,5.94-2.14c1.62-1.42,2.93-3.93,3.94-7.53c1.01-3.6,1.73-8.64,2.16-15.12c0.43-6.48,0.63-14.74,0.6-24.77
			c-0.03-9.84-0.28-17.95-0.74-24.33c-0.46-6.38-1.19-11.35-2.2-14.92c-1-3.57-2.3-6.04-3.9-7.4c-1.59-1.37-3.51-2.01-5.76-1.93
			c-9.78,0.37-14.67,0.63-24.44,1.27c-0.02-1.68-0.02-2.51-0.04-4.19c10.59-0.72,15.9-1,26.51-1.4c3.22-0.12,6.23,1.2,9.01,3.97
			c2.79,2.77,5.23,6.63,7.34,11.57c2.1,4.94,3.74,10.61,4.91,17c1.17,6.39,1.76,13.1,1.77,20.11c0.01,7.11-0.58,13.92-1.77,20.42
			c-1.19,6.5-2.83,12.26-4.92,17.29c-2.1,5.03-4.55,9.01-7.35,11.95c-2.81,2.94-5.84,4.4-9.09,4.4
			C279.83,115.09,274.74,115.09,264.57,115.1z M270.73,112.99c-0.29-34.54-0.58-69.09-0.87-103.63c4.18-0.25,6.26-0.37,10.44-0.57
			c0.23,34.73,0.47,69.45,0.7,104.18C276.9,112.98,274.84,112.98,270.73,112.99z"/>
		<path class="st0" d="M368.79,37.16c-0.01-4.32-0.43-8.3-1.26-11.95c-0.83-3.65-2.03-6.62-3.6-8.9c-1.57-2.28-3.48-3.47-5.73-3.56
			c-11.18-0.45-16.78-0.58-27.96-0.68c0-1.71,0-2.56,0.01-4.27c13.81,0.13,27.62,0.58,41.4,1.37c-0.07,9.37-0.15,18.73-0.22,28.1
			C370.37,37.23,369.85,37.2,368.79,37.16z M330.11,115.07c0-1.71,0-2.56,0.01-4.27c11.01,0.01,16.51,0.01,27.52,0.04
			c2.43,0.01,4.5-1.4,6.21-4.21c1.71-2.81,3.05-6.51,4.02-11.1c0.97-4.58,1.5-9.55,1.58-14.89c1.05,0.02,1.57,0.03,2.61,0.05
			c-0.09,11.47-0.18,22.93-0.28,34.4C357.9,115.08,344,115.07,330.11,115.07z M336.29,112.94c0.08-35.02,0.16-70.04,0.24-105.06
			c4.18,0.07,6.27,0.12,10.45,0.23c-0.14,34.94-0.28,69.89-0.42,104.83C342.46,112.94,340.4,112.94,336.29,112.94z M358.38,84.56
			c-0.02-4.52-0.41-8.25-1.18-11.18c-0.77-2.93-2.02-5.13-3.76-6.57c-1.74-1.45-4.05-2.19-6.94-2.23c0.01-1.7,0.01-2.55,0.02-4.25
			c2.89,0.04,5.21-0.58,6.96-1.86c1.76-1.29,3.04-3.28,3.84-6c0.8-2.71,1.24-6.14,1.31-10.28c1.05,0.03,1.58,0.05,2.63,0.08
			c-0.09,14.12-0.18,28.23-0.27,42.35C359.95,84.58,359.42,84.57,358.38,84.56z"/>
		<path class="st0" d="M376.99,115.1c0.01-1.68,0.02-2.52,0.04-4.2c9.39,0.03,14.09,0.06,23.49,0.1c2.34,0.01,4.34-0.66,5.98-2.02
			c1.64-1.36,3-3.75,4.07-7.19c1.07-3.44,1.88-8.25,2.42-14.45c0.55-6.19,0.89-14.08,1.03-23.68c0.14-9.42,0.03-17.2-0.32-23.35
			c-0.35-6.15-0.99-11-1.93-14.54c-0.94-3.54-2.19-6.07-3.75-7.59c-1.56-1.52-3.46-2.38-5.71-2.58c-9.75-0.87-14.64-1.24-24.41-1.85
			c0.01-1.68,0.02-2.52,0.04-4.2c10.6,0.68,15.89,1.11,26.47,2.11c3.21,0.31,6.18,1.98,8.91,4.98c2.73,3,5.1,6.98,7.11,11.91
			c2.01,4.93,3.54,10.46,4.6,16.6s1.54,12.5,1.43,19.1c-0.11,6.7-0.81,13.07-2.1,19.16c-1.29,6.08-3.03,11.49-5.21,16.22
			c-2.18,4.73-4.7,8.5-7.55,11.3c-2.86,2.8-5.91,4.21-9.16,4.2C392.24,115.12,387.16,115.11,376.99,115.1z M383.18,113.02
			c0.34-34.34,0.68-68.69,1.01-103.03c4.17,0.3,6.26,0.46,10.43,0.81c-0.39,34.08-0.78,68.17-1.17,102.25
			C389.35,113.03,387.3,113.03,383.18,113.02z"/>
		<path class="st0" d="M432.11,18.78c0.03-1.6,0.04-2.4,0.07-3.99c9.23,1.23,13.84,1.99,23.05,3.76c-0.03,1.55-0.05,2.32-0.08,3.87
			C445.95,20.7,441.34,19.96,432.11,18.78z M430.5,115.2c0.03-1.6,0.04-2.4,0.07-4c9.13,0.11,13.7,0.26,22.83,0.67
			c-0.03,1.55-0.05,2.32-0.08,3.87C444.19,115.39,439.62,115.26,430.5,115.2z M436.71,113.29c0.57-32.54,1.15-65.08,1.72-97.62
			c4.15,0.62,6.23,0.96,10.38,1.69c-0.61,32.07-1.21,64.14-1.82,96.2C442.87,113.43,440.82,113.37,436.71,113.29z"/>
		<path class="st0" d="M466.18,116.34c0.03-1.51,0.05-2.27,0.08-3.78c3.25,0.2,4.88,0.3,8.13,0.52c0.63-28.75,1.26-57.49,1.9-86.24
			c-1.31-0.3-1.96-0.45-3.27-0.75c-2.4-0.54-4.48,0.27-6.26,2.44c-1.78,2.17-3.18,5.27-4.2,9.25c-1.02,3.99-1.61,8.42-1.75,13.27
			c-1.05-0.16-1.57-0.24-2.62-0.4c0.21-10.47,0.42-20.93,0.63-31.4c15.25,3.11,30.38,6.85,45.31,11.26
			c-0.23,9.56-0.46,19.12-0.7,28.69c-1.04-0.23-1.56-0.35-2.6-0.58c0.06-4.49-0.32-8.76-1.16-12.85c-0.84-4.09-2.08-7.55-3.72-10.38
			c-1.64-2.83-3.67-4.59-6.1-5.21c-1.3-0.34-1.96-0.5-3.26-0.83c-0.65,28.16-1.29,56.33-1.94,84.49c3.07,0.24,4.6,0.36,7.67,0.62
			c-0.03,1.44-0.05,2.16-0.08,3.59C481.83,117.26,476.61,116.9,466.18,116.34z"/>
		<path class="st0" d="M507.96,35.15c0.03-1.39,0.05-2.09,0.09-3.48c9.12,2.72,13.67,4.18,22.75,7.2c-0.03,1.31-0.05,1.96-0.08,3.27
			C521.63,39.2,517.08,37.79,507.96,35.15z M505.9,119.12c0.03-1.39,0.05-2.09,0.09-3.48c9.13,0.83,13.69,1.27,22.81,2.16
			c-0.03,1.31-0.05,1.96-0.08,3.27C519.59,120.27,515.03,119.87,505.9,119.12z M512.12,117.92c0.7-28.13,1.39-56.25,2.09-84.38
			c4.1,1.27,6.15,1.92,10.24,3.24c-0.69,27.36-1.38,54.71-2.06,82.07C518.28,118.48,516.23,118.29,512.12,117.92z"/>
		<path class="st0" d="M557.99,124.9c-3.38-0.27-6.51-1.58-9.38-4.03c-2.87-2.45-5.35-5.73-7.44-9.85
			c-2.09-4.12-3.69-8.79-4.79-13.97c-1.11-5.18-1.59-10.57-1.45-16.08c0.14-5.51,0.89-10.62,2.24-15.24
			c1.35-4.62,3.17-8.48,5.43-11.55c2.27-3.07,4.88-5.15,7.83-6.25c2.95-1.1,6.09-1,9.43,0.24c3.34,1.23,6.43,3.42,9.29,6.45
			c2.86,3.03,5.33,6.57,7.41,10.59c2.08,4.02,3.69,8.28,4.81,12.81c1.13,4.53,1.64,9.05,1.54,13.64c-0.1,4.6-0.81,8.85-2.12,12.86
			s-3.11,7.56-5.37,10.69c-2.26,3.13-4.89,5.6-7.88,7.38C564.56,124.35,561.38,125.17,557.99,124.9z M558.01,121.43
			c2.21,0.2,4.08-0.14,5.62-1c1.54-0.86,2.8-2.48,3.79-4.86c0.99-2.37,1.74-5.7,2.25-9.99s0.85-9.79,1-16.53
			c0.16-6.74,0.08-12.31-0.22-16.75c-0.31-4.44-0.89-8.04-1.75-10.8c-0.86-2.76-2.03-4.91-3.5-6.44c-1.47-1.53-3.3-2.7-5.48-3.48
			c-2.14-0.76-3.97-0.89-5.47-0.35c-1.51,0.53-2.74,1.94-3.71,4.24c-0.97,2.3-1.71,5.74-2.24,10.33
			c-0.53,4.58-0.88,10.54-1.06,17.82c-0.19,7.49-0.14,13.67,0.15,18.51c0.29,4.83,0.87,8.62,1.73,11.35
			c0.86,2.73,2.03,4.69,3.5,5.88C554.1,120.56,555.89,121.24,558.01,121.43z"/>
		<path class="st0" d="M627.48,128.55c-11.14-17.57-20.03-36.28-28.53-55.22c-0.1-0.03-0.15-0.05-0.26-0.09
			c-0.31,16.91-0.61,33.83-0.92,50.74c2.86,0.2,4.28,0.29,7.14,0.47c-0.02,0.96-0.02,1.44-0.04,2.4
			c-6.86-0.34-10.29-0.54-17.15-0.99c0.02-1.05,0.03-1.57,0.05-2.62c2.86,0.22,4.29,0.33,7.14,0.54c0.37-19.49,0.74-38.99,1.1-58.48
			c-2.8-1.05-4.2-1.58-7-2.62c0.02-1.05,0.03-1.57,0.05-2.62c7.44,2.87,11.15,4.32,18.54,7.23c6.14,13.19,12.44,26.24,19.75,38.84
			c0.1,0.02,0.15,0.03,0.26,0.04c0.06-9.62,0.12-19.24,0.17-28.86c-2.52-0.95-3.78-1.43-6.3-2.38c0.01-0.87,0.01-1.31,0.02-2.18
			c6.15,2.42,9.22,3.63,15.33,6.02c0,0.78,0,1.17,0,1.95c-2.51-0.94-3.77-1.42-6.28-2.36c-0.07,16.75-0.15,33.49-0.22,50.24
			C629.2,128.58,628.62,128.57,627.48,128.55z"/>
	</g>
</g>
</svg>
