<?xml version="1.0" encoding="utf-8"?>
<!-- Generator: Adobe Illustrator 25.0.0, SVG Export Plug-In . SVG Version: 6.00 Build 0)  -->
<svg version="1.1" id="Layer_1" xmlns="http://www.w3.org/2000/svg" xmlns:xlink="http://www.w3.org/1999/xlink" x="0px" y="0px"
	 viewBox="0 0 445.77 117.02" style="enable-background:new 0 0 445.77 117.02;" xml:space="preserve">
<style type="text/css">
	.st0{fill:#035961;}
</style>
<g>
	<path class="st0" d="M0,61.85v-2.02h25.06c2.78,0,5.14-0.35,7.06-1.04c1.92-0.7,3.49-1.97,4.72-3.82c1.22-1.85,2.11-4.42,2.66-7.7
		c0.55-3.29,0.83-7.5,0.83-12.64c0-5.09-0.28-9.26-0.83-12.53c-0.55-3.26-1.43-5.82-2.63-7.67c-1.2-1.85-2.75-3.13-4.64-3.85
		c-1.9-0.72-4.19-1.08-6.88-1.08H0V7.56h27.58c3.55,0,6.85,0.73,9.9,2.2c3.05,1.46,5.74,3.46,8.06,5.98
		c2.33,2.52,4.14,5.41,5.44,8.68c1.3,3.26,1.94,6.65,1.94,10.15c0,3.6-0.66,7.03-1.98,10.3c-1.32,3.27-3.14,6.17-5.47,8.71
		c-2.33,2.54-5.05,4.56-8.17,6.05c-3.12,1.49-6.48,2.23-10.08,2.23H0z M7.34,60.77V7.56h10.51v53.21H7.34z"/>
	<path class="st0" d="M64.01,9.51V7.56h25.34v1.94H64.01z M64.01,61.85v-2.02h25.34v2.02H64.01z M71.35,60.77V7.56h10.51v53.21
		H71.35z"/>
	<path class="st0" d="M115.27,37.23v-2.16h5.98c2.93,0,5.3-0.35,7.13-1.04c1.82-0.7,3.16-2,4-3.92c0.84-1.92,1.26-4.7,1.26-8.35
		c0-3.41-0.34-5.99-1.01-7.74c-0.67-1.75-1.69-2.94-3.06-3.56c-1.37-0.62-3.06-0.94-5.08-0.94H98.71V7.56h29.02
		c3.46,0,6.56,0.62,9.32,1.87c2.76,1.25,4.96,2.96,6.59,5.15c1.63,2.19,2.45,4.69,2.45,7.52c0,2.98-1,5.6-2.99,7.88
		c-1.99,2.28-4.84,4.06-8.53,5.33c-3.7,1.27-8.14,1.91-13.32,1.91H115.27z M98.71,61.85v-2.02h26.78v2.02H98.71z M106.06,60.77V7.56
		h10.51v53.21H106.06z"/>
	<path class="st0" d="M167.76,61.85v-2.02h9.22V9.51h-4.54c-2.45,0.05-4.55,0.82-6.3,2.3c-1.75,1.49-3.1,3.41-4.03,5.76
		c-0.94,2.35-1.43,4.9-1.48,7.63h-2.74V7.56h48.31V25.2h-2.66c-0.05-2.78-0.56-5.36-1.55-7.74c-0.98-2.38-2.35-4.29-4.1-5.76
		c-1.75-1.46-3.9-2.2-6.44-2.2h-3.96v50.33h8.93v2.02H167.76z"/>
	<path class="st0" d="M226.58,61.85v-2.02h8.42V37.66L218.37,9.51h-5.69V7.56h25.2v1.94h-6.98l13.54,23.33h0.29l12.24-23.33h-8.78
		V7.56h18v1.94h-6.62l-14.04,27v23.33h8.57v2.02H226.58z"/>
	<path class="st0" d="M296.13,62.72c-3.6,0-6.96-0.76-10.08-2.27c-3.12-1.51-5.86-3.58-8.21-6.19c-2.35-2.62-4.19-5.6-5.51-8.96
		c-1.32-3.36-1.98-6.91-1.98-10.66c0-3.7,0.66-7.22,1.98-10.58c1.32-3.36,3.16-6.34,5.51-8.93c2.35-2.59,5.09-4.63,8.21-6.12
		c3.12-1.49,6.48-2.23,10.08-2.23c3.65,0,7.04,0.74,10.19,2.23c3.14,1.49,5.89,3.53,8.24,6.12c2.35,2.59,4.19,5.57,5.51,8.93
		c1.32,3.36,1.98,6.89,1.98,10.58c0,3.74-0.66,7.3-1.98,10.66c-1.32,3.36-3.16,6.35-5.51,8.96c-2.35,2.62-5.1,4.68-8.24,6.19
		S299.78,62.72,296.13,62.72z M296.13,60.41c2.45,0,4.51-0.38,6.19-1.15c1.68-0.77,3.05-2.1,4.1-4c1.06-1.9,1.82-4.51,2.3-7.85
		c0.48-3.34,0.72-7.57,0.72-12.71c0-5.14-0.24-9.37-0.72-12.71c-0.48-3.34-1.25-5.94-2.3-7.81c-1.06-1.87-2.44-3.18-4.14-3.92
		c-1.71-0.74-3.78-1.12-6.23-1.12c-2.4,0-4.44,0.37-6.12,1.12c-1.68,0.74-3.04,2.05-4.07,3.92s-1.78,4.48-2.23,7.81
		c-0.46,3.34-0.68,7.55-0.68,12.64c0,5.18,0.23,9.46,0.68,12.82c0.46,3.36,1.21,5.98,2.27,7.85c1.06,1.87,2.42,3.19,4.1,3.96
		C291.69,60.03,293.73,60.41,296.13,60.41z M317.66,79.56c-6.87,0-12.34-0.56-16.42-1.69c-4.08-1.13-7.02-3.02-8.82-5.69
		c-1.8-2.66-2.7-6.28-2.7-10.84h13.03c-0.05,0.67-0.1,1.37-0.14,2.09c-0.05,0.72-0.07,1.34-0.07,1.87c0,3.26,0.59,5.75,1.76,7.45
		c1.18,1.7,2.89,2.87,5.15,3.49c2.25,0.62,4.99,0.94,8.21,0.94V79.56z"/>
	<path class="st0" d="M359.14,62.72c-3.99,0-7.48-0.54-10.48-1.62c-3-1.08-5.33-2.72-6.98-4.93c-1.66-2.21-2.48-4.99-2.48-8.35V9.51
		h-7.7V7.56h25.42v1.94h-7.2V47.6c0,4.46,1.07,7.66,3.2,9.58c2.14,1.92,5.05,2.88,8.75,2.88c3.94,0,7.04-1.03,9.32-3.1
		c2.28-2.06,3.42-5.18,3.42-9.36V9.51h-7.2V7.56h17.28v1.94h-7.56v38.23c0,5.18-1.48,8.98-4.43,11.38
		C369.54,61.52,365.09,62.72,359.14,62.72z"/>
	<path class="st0" d="M434.81,22.11c-0.05-2.26-0.54-4.33-1.48-6.23c-0.94-1.9-2.24-3.43-3.92-4.61c-1.68-1.18-3.72-1.76-6.12-1.76
		h-29.95V7.56h44.21v14.54H434.81z M393.33,61.85v-2.02h31.03c2.54,0,4.69-0.71,6.44-2.12c1.75-1.41,3.12-3.28,4.1-5.58
		c0.98-2.3,1.5-4.82,1.55-7.56h2.66v17.28H393.33z M401.04,60.77V7.92h10.51v52.85H401.04z M423.57,46.3
		c-0.05-2.5-0.46-4.5-1.22-6.01c-0.77-1.51-2.04-2.62-3.82-3.31c-1.78-0.7-4.2-1.04-7.27-1.04v-1.94c3.07,0,5.51-0.31,7.31-0.94
		c1.8-0.62,3.07-1.64,3.82-3.06c0.74-1.42,1.14-3.3,1.19-5.65h2.66V46.3H423.57z"/>
	<path class="st0" d="M174.46,98.91v-0.96h2.66c1.3,0,2.36-0.15,3.17-0.46c0.81-0.31,1.4-0.89,1.78-1.74
		c0.37-0.85,0.56-2.09,0.56-3.71c0-1.51-0.15-2.66-0.45-3.44c-0.3-0.78-0.75-1.31-1.36-1.58c-0.61-0.28-1.36-0.42-2.26-0.42H167.1
		v-0.86H180c1.54,0,2.92,0.28,4.14,0.83s2.2,1.32,2.93,2.29c0.73,0.97,1.09,2.08,1.09,3.34c0,1.32-0.44,2.49-1.33,3.5
		c-0.89,1.01-2.15,1.8-3.79,2.37c-1.64,0.57-3.62,0.85-5.92,0.85H174.46z M167.1,109.85v-0.9H179v0.9H167.1z M170.36,109.37V85.72
		h4.67v23.65H170.36z"/>
	<path class="st0" d="M188.57,109.85v-0.9h7.74v0.9H188.57z M191.36,109.37l8.9-24h0.9l-1.82,5.31l-6.91,18.69H191.36z
		 M194.56,102.81v-0.86h10.69v0.86H194.56z M204.6,109.37l-5.89-16.83h-0.13l-0.19-1.06l1.86-6.11h0.9l8.35,24H204.6z
		 M200.92,109.85v-0.9h11.04v0.9H200.92z"/>
	<path class="st0" d="M222.59,97.37v-0.96h2.66c1.15,0,2.08-0.13,2.8-0.4s1.24-0.77,1.57-1.5c0.33-0.74,0.5-1.81,0.5-3.22
		c0-1.32-0.14-2.32-0.42-2.99c-0.28-0.67-0.69-1.12-1.25-1.36c-0.55-0.23-1.25-0.35-2.08-0.35h-11.14v-0.86h12.58
		c1.45,0,2.77,0.22,3.95,0.66c1.18,0.44,2.13,1.06,2.83,1.87c0.7,0.81,1.06,1.8,1.06,2.98c0,1.26-0.42,2.35-1.25,3.28
		c-0.83,0.93-2.02,1.64-3.57,2.13c-1.55,0.49-3.41,0.74-5.58,0.74H222.59z M215.23,109.85v-0.9h11.9v0.9H215.23z M218.49,109.37
		V85.72h4.67v23.65H218.49z M235.03,109.85c-1.05,0-2-0.2-2.85-0.61c-0.85-0.4-1.53-0.98-2.03-1.71c-0.5-0.74-0.77-1.59-0.82-2.58
		l-0.13-3.01c-0.06-1.56-0.5-2.71-1.3-3.46c-0.8-0.75-1.81-1.12-3.02-1.12l2.43-0.26h1.66v0.13c0.94,0.21,1.84,0.63,2.72,1.25
		c0.87,0.62,1.59,1.37,2.16,2.24c0.56,0.88,0.85,1.82,0.85,2.85v1.54c0,1.47,0.16,2.48,0.48,3.01c0.32,0.53,0.9,0.8,1.73,0.8h1.22
		v0.93H235.03z"/>
	<path class="st0" d="M241.34,86.59v-0.86h11.26v0.86H241.34z M241.34,109.85v-0.9h11.26v0.9H241.34z M244.6,109.37V85.72h4.67
		v23.65H244.6z"/>
	<path class="st0" d="M265.56,110.24c-1.24,0-2.29-0.17-3.17-0.51c-0.88-0.34-1.71-0.81-2.5-1.41l-1.34,1.54h-0.86v-6.72h0.9
		c0.26,1.02,0.67,2,1.23,2.93c0.56,0.93,1.32,1.68,2.27,2.26s2.13,0.86,3.54,0.86c1.22,0,2.22-0.21,3.02-0.62s1.4-0.97,1.81-1.66
		s0.61-1.43,0.61-2.22c0-0.77-0.17-1.41-0.51-1.92c-0.34-0.51-0.8-0.93-1.38-1.26c-0.58-0.33-1.23-0.61-1.95-0.83
		c-0.73-0.22-1.47-0.42-2.24-0.59c-1.51-0.38-2.8-0.9-3.86-1.54c-1.06-0.64-1.86-1.45-2.4-2.43s-0.82-2.16-0.82-3.52
		c0-1.6,0.35-2.93,1.04-4c0.69-1.07,1.61-1.87,2.74-2.4c1.13-0.53,2.34-0.8,3.62-0.8c0.98,0,1.85,0.14,2.61,0.43s1.55,0.72,2.38,1.3
		l1.02-1.38h0.9v6.53h-0.86c-0.58-2.03-1.38-3.5-2.4-4.43c-1.02-0.93-2.27-1.39-3.74-1.39c-0.9,0-1.72,0.16-2.48,0.48
		c-0.76,0.32-1.36,0.77-1.81,1.34c-0.45,0.58-0.67,1.24-0.67,1.98c0,0.68,0.17,1.24,0.5,1.68c0.33,0.44,0.78,0.79,1.34,1.07
		s1.2,0.51,1.89,0.7c0.69,0.19,1.41,0.38,2.16,0.58c1.58,0.38,2.9,0.91,3.97,1.57c1.07,0.66,1.87,1.52,2.42,2.58
		c0.54,1.06,0.82,2.36,0.82,3.92c0,2.48-0.67,4.41-2.02,5.81S268.06,110.24,265.56,110.24z"/>
</g>
</svg>
